<svg width="928" height="147" viewBox="0 0 928 147" fill="none" xmlns="http://www.w3.org/2000/svg">
<g id="Group 1000004177">
<g id="g16">
<g id="g22">
<path id="path24" d="M173.412 105.028C173.412 136.016 144.061 146.337 113.922 146.337C93.257 146.337 75.1063 141.427 56.7983 130.885L69.717 110.297C83.941 118.193 100.061 122.989 115.028 122.989C134.321 122.989 146.621 118.067 146.621 106.547C146.621 93.7813 129.72 88.8506 111.054 83.1399C86.8957 75.7466 59.5117 67.3693 59.5117 39.072C59.5117 27.9413 64.3997 18.4813 73.6477 11.7213C83.5957 4.44928 98.4383 0.606617 116.574 0.606617C135.633 0.606617 152.298 5.37462 170.609 16.0626L157.958 36.076C143.541 28.1093 130.196 23.5626 115.468 23.5626C95.861 23.5626 86.305 29.7253 86.305 38.1266C86.305 51.408 103.717 55.86 122.976 61.9093C146.617 69.3346 173.412 78.5199 173.412 105.028Z" fill="#24262E"/>
</g>
<g id="g26">
<path id="path28" d="M318.857 3.3717V27.5304H269.889V143.216H244.172V27.5304H195.196V3.3717H318.857Z" fill="#24262E"/>
</g>
<g id="g30">
<path id="path32" d="M583.376 51.7519C583.376 38.8266 572.654 28.3093 559.474 28.3093H512.509V75.1919H559.474C572.652 75.1919 583.376 64.6759 583.376 51.7519ZM617.362 143.216H586.984L554.71 100.132H512.509V143.216H486.792V3.37194H560.269C587.192 3.37194 609.093 25.0746 609.093 51.7519C609.093 70.8986 597.809 87.4826 581.486 95.3186L617.362 143.216Z" fill="#24262E"/>
</g>
<path id="path34" d="M642.791 3.37118H668.507V143.214H642.791V3.37118Z" fill="#24262E"/>
<g id="g36">
<path id="path38" d="M699.39 132.844C699.39 125.444 704.39 120.244 711.389 120.244C718.389 120.244 723.19 125.444 723.19 132.844C723.19 140.043 718.589 145.444 711.19 145.444C704.19 145.444 699.39 140.043 699.39 132.844Z" fill="#24262E"/>
</g>
<path id="path40" d="M901.784 3.37118H927.5V143.214H901.784V3.37118Z" fill="#24262E"/>
<g id="g42">
<path id="path44" d="M385.366 -3.47961e-05L302.479 143.564H303.655L345.782 130L385.189 60.44L415.113 70.416L391.373 70.9346L388.302 70.9173L392.027 72.5093L424.595 130L466.722 143.564H468.253L385.366 -3.47961e-05Z" fill="#46C9CC"/>
</g>
<g id="g46">
<path id="path48" d="M830.26 88.3991L805.533 26.5898L780.805 88.3991H830.26ZM878.38 143.215H852.19L839.614 111.779H771.452L758.874 143.215H732.685L788.633 3.37109H822.432L878.38 143.215Z" fill="#24262E"/>
</g>
</g>
<path id="path12" d="M0 3.37106H25.7173V143.214H0V3.37106Z" fill="#24262E"/>
</g>
</svg>
